<?xml version="1.0" standalone="no"?>
<!DOCTYPE svg PUBLIC "-//W3C//DTD SVG 20010904//EN"
 "http://www.w3.org/TR/2001/REC-SVG-20010904/DTD/svg10.dtd">
<svg version="1.0" xmlns="http://www.w3.org/2000/svg"
 width="460.000000pt" height="460.000000pt" viewBox="0 0 460.000000 460.000000"
 preserveAspectRatio="xMidYMid meet">
<metadata>
Created by potrace 1.11, written by Peter Selinger 2001-2013
</metadata>
<g transform="translate(0.000000,460.000000) scale(0.100000,-0.100000)"
fill="#000000" stroke="none">
<path d="M1975 4343 c-121 -19 -391 -98 -655 -192 -338 -120 -565 -298 -674
-526 -44 -91 -48 -111 -47 -231 1 -138 13 -194 63 -294 49 -98 140 -196 232
-251 31 -19 59 -43 62 -54 4 -11 20 -35 35 -53 16 -18 29 -43 29 -55 0 -59 86
-333 153 -486 14 -34 14 -35 -16 -55 -93 -64 -88 -217 11 -319 46 -48 80 -66
145 -77 60 -9 106 2 146 36 l31 25 32 -24 c81 -61 273 -133 381 -144 32 -3 60
-9 62 -13 3 -4 -2 -27 -11 -51 -59 -166 -115 -423 -97 -453 4 -6 29 -37 56
-68 l49 -57 -27 -23 c-30 -26 -33 -48 -16 -128 14 -72 88 -285 114 -327 23
-40 48 -47 133 -40 l64 5 0 -54 c0 -44 4 -55 21 -65 26 -13 214 -8 228 6 6 6
17 57 26 116 l17 105 51 19 c29 11 54 21 57 22 3 2 4 -39 2 -91 -5 -106 -4
-108 74 -121 61 -10 120 11 133 46 36 97 61 197 61 247 0 78 3 80 78 66 116
-21 153 -23 157 -11 29 101 107 589 96 600 -5 5 -46 14 -90 21 l-81 11 -44 98
c-51 113 -102 195 -159 254 -23 24 -39 44 -36 46 2 2 43 25 90 51 116 64 245
161 308 230 20 21 45 49 56 60 59 63 129 189 151 271 18 67 18 276 0 362 -32
147 -123 352 -252 565 l-53 87 48 34 c84 61 102 144 43 199 -32 30 -109 70
-169 88 -41 13 -43 15 -43 51 0 71 -46 171 -108 236 -73 77 -103 97 -245 173
-169 89 -323 130 -507 135 -74 2 -148 1 -165 -2z m404 -99 c254 -71 460 -207
531 -349 31 -62 32 -71 27 -143 -3 -42 -13 -95 -22 -117 -19 -45 -104 -165
-117 -165 -4 0 -8 -7 -8 -15 0 -23 8 -19 57 33 47 49 118 150 128 183 8 25 34
24 98 -3 60 -25 107 -64 107 -89 0 -40 -84 -91 -310 -190 -93 -40 -174 -83
-196 -104 -6 -5 -36 -30 -66 -55 -61 -50 -123 -123 -185 -218 -24 -36 -43 -66
-43 -67 0 -1 -31 -49 -69 -106 -89 -137 -159 -208 -241 -247 -200 -97 -403
-81 -785 58 -90 33 -252 113 -275 136 -13 14 -12 15 15 8 17 -4 65 -18 108
-31 227 -71 477 -70 761 4 108 27 236 79 288 115 42 29 118 100 118 110 0 10
-27 10 -32 0 -8 -19 -99 -74 -171 -102 -134 -53 -299 -91 -489 -111 -187 -20
-370 7 -583 83 -119 43 -204 102 -259 178 -79 110 -96 168 -96 331 0 127 3
142 47 239 62 135 240 298 430 394 70 35 365 151 433 169 30 9 102 29 160 46
213 61 277 71 414 65 73 -3 131 -13 225 -40z m709 -921 c12 -19 31 -52 42 -73
11 -21 31 -55 45 -76 23 -33 33 -74 19 -74 -3 0 -17 14 -31 30 -43 52 -134 89
-218 89 -86 1 -198 -53 -274 -132 l-33 -35 -35 20 -34 21 38 39 c21 22 67 61
102 88 55 41 108 68 306 155 26 11 31 11 40 -2 6 -9 20 -31 33 -50z m-534
-318 c20 -8 36 -16 36 -18 0 -1 -9 -26 -20 -55 -24 -64 -25 -123 -3 -187 25
-75 62 -119 128 -156 59 -33 63 -34 175 -34 104 1 121 3 177 29 33 15 74 41
89 57 28 30 53 36 70 20 7 -8 116 -31 147 -31 12 0 8 -98 -9 -170 -33 -147
-183 -332 -364 -453 -123 -81 -289 -162 -405 -198 -55 -17 -107 -33 -115 -35
-37 -12 -292 -44 -354 -44 -100 0 -268 27 -345 56 -36 14 -75 28 -86 31 -10 4
-50 24 -87 45 -84 48 -108 48 -143 3 -16 -19 -43 -39 -61 -45 -106 -35 -247
97 -229 216 9 64 51 94 133 94 34 0 62 2 62 3 0 2 -7 17 -15 33 -21 44 -47
150 -43 183 l3 29 40 -19 c75 -37 178 -79 183 -75 2 3 -6 53 -18 111 -12 59
-20 108 -18 109 2 2 46 -8 98 -22 76 -20 120 -25 220 -26 114 0 132 2 205 29
103 37 179 82 231 137 50 51 154 188 154 200 0 5 6 15 13 23 6 7 35 49 62 94
28 44 51 81 51 81 1 0 18 -7 38 -15z m720 -47 c41 -99 82 -248 69 -248 -11 0
-102 28 -112 35 -5 2 -3 22 5 42 15 44 18 154 5 201 -16 55 5 35 33 -30z
m-727 -1450 c-17 -22 -33 -34 -35 -28 -3 7 4 42 14 79 l18 66 17 -39 17 -39
-31 -39z m204 40 c-71 -97 -270 -287 -416 -398 -26 -19 -58 -45 -73 -57 l-27
-23 -13 25 c-13 25 -3 65 16 65 5 0 17 8 28 18 10 9 72 61 136 115 64 54 155
139 201 189 84 90 95 96 170 107 5 0 -5 -18 -22 -41z m216 -83 c15 -43 13 -49
-14 -41 -25 8 -48 67 -30 78 20 12 30 4 44 -37z m-215 -74 l-73 -68 29 -64
c16 -35 32 -76 35 -91 l7 -27 -57 31 c-32 17 -67 37 -78 44 -21 15 -51 18 -57
6 -5 -11 -114 -102 -122 -102 -24 0 23 57 155 189 133 133 154 150 187 153 20
2 39 2 41 0 3 -1 -28 -33 -67 -71z m-316 4 c-22 -19 -43 -35 -48 -35 -5 0 -27
12 -50 28 l-42 27 50 6 c27 3 67 7 89 7 l40 2 -39 -35z m647 -40 c112 -20 106
-7 78 -151 -11 -54 -29 -160 -41 -234 -12 -74 -23 -140 -25 -146 -2 -7 -32 -5
-94 5 -95 15 -99 19 -41 41 61 23 63 26 56 110 -8 95 -24 199 -41 270 -7 30
-16 72 -20 93 -5 34 -4 38 12 34 10 -3 62 -13 116 -22z m-1056 -50 c19 -8 45
-15 57 -15 43 0 50 -14 37 -63 l-13 -45 62 -111 c35 -61 61 -113 59 -115 -2
-1 -19 -13 -37 -25 l-32 -22 -110 103 c-95 88 -110 106 -106 128 3 14 8 52 11
85 11 104 12 105 72 80z m488 -377 c49 -11 60 -17 60 -33 0 -19 -9 -20 -180
-28 -252 -10 -243 -13 -155 54 l73 57 71 -19 c39 -10 98 -24 131 -31z m-495
-56 c0 -7 -5 -21 -12 -32 -11 -17 -14 -14 -34 38 -12 31 -19 61 -16 66 6 11
61 -53 62 -72z m685 18 c16 -7 12 -9 -18 -9 -23 -1 -36 3 -32 9 7 12 23 12 50
0z m161 -82 c-3 -13 -11 -48 -17 -79 -11 -56 -11 -56 -75 -87 -36 -18 -64 -38
-64 -47 0 -21 14 -19 69 9 l48 24 -4 -23 c-4 -16 -18 -26 -57 -38 -29 -10 -58
-17 -65 -17 -8 0 -11 35 -10 129 l2 129 56 10 c31 5 71 10 90 11 30 1 33 -1
27 -21z m-362 -43 c-3 -16 -12 -58 -20 -91 -15 -58 -18 -63 -57 -80 -56 -24
-110 -65 -100 -75 5 -5 31 3 57 16 66 34 77 33 63 -4 -11 -30 -40 -41 -114
-41 -30 0 -33 3 -33 33 -1 17 -3 86 -6 152 l-6 121 110 -1 110 0 -4 -30z m106
-40 c0 -19 -8 -28 -36 -40 -46 -19 -44 -19 -44 9 0 44 10 56 46 56 30 0 34 -3
34 -25z m-474 -49 c1 -1 4 -31 8 -68 l7 -68 -30 0 c-27 0 -31 5 -55 71 -14 38
-26 72 -26 74 0 4 92 -5 96 -9z m589 -166 c-36 -24 -45 -25 -45 -6 0 13 10 17
65 24 6 1 -3 -7 -20 -18z m60 -19 c-3 -6 -14 -11 -23 -11 -15 1 -15 2 2 15 21
16 32 13 21 -4z m-395 -26 c0 -8 -64 -45 -77 -45 -7 0 -13 9 -13 19 0 16 8 21
43 24 23 2 43 4 45 5 1 1 2 0 2 -3z m50 -9 c0 -9 -32 -36 -42 -36 -6 0 0 9 13
20 25 21 29 23 29 16z"/>
<path d="M1649 4027 c-28 -19 -34 -29 -34 -57 0 -19 -4 -41 -9 -48 -11 -18 -1
-26 37 -29 18 -1 61 -5 97 -8 55 -5 70 -3 98 14 21 14 32 29 32 44 0 35 -11
40 -37 15 -20 -18 -34 -22 -81 -20 -35 2 -63 8 -72 18 -13 14 -12 17 10 36 21
17 34 19 83 14 61 -6 72 3 35 28 -35 25 -118 21 -159 -7z"/>
<path d="M1401 3725 c-17 -25 -29 -45 -27 -45 8 0 86 76 86 83 0 22 -33 1 -59
-38z"/>
<path d="M2514 2585 c-17 -44 42 -130 192 -280 31 -31 30 -65 -1 -95 -29 -28
-33 -60 -7 -60 10 0 34 16 55 36 34 33 37 41 37 90 0 50 -3 56 -47 102 -27 27
-75 70 -108 96 -33 27 -68 63 -77 81 -22 41 -36 51 -44 30z"/>
<path d="M2274 2549 c-51 -57 -221 -145 -354 -184 -128 -37 -140 -44 -140 -72
0 -38 39 -47 149 -33 184 23 347 119 403 238 16 34 18 45 8 57 -18 21 -44 19
-66 -6z"/>
<path d="M2795 2108 c-38 -26 -83 -52 -100 -56 -35 -10 -50 -52 -18 -52 73 1
187 68 206 122 14 39 -19 34 -88 -14z"/>
<path d="M1222 2018 c-7 -7 -11 -28 -11 -47 1 -22 3 -28 6 -14 6 31 29 46 59
39 24 -6 25 -8 10 -25 -20 -22 -20 -40 0 -69 17 -24 53 -29 72 -10 15 15 15
50 1 81 -21 46 -107 75 -137 45z m108 -84 c0 -8 -4 -12 -10 -9 -5 3 -10 10
-10 16 0 5 5 9 10 9 6 0 10 -7 10 -16z"/>
</g>
</svg>
